<svg preserveAspectRatio="none" width="100%" height="100%" overflow="visible" style="display: block;" viewBox="0 0 45.8383 39.1733" fill="none" xmlns="http://www.w3.org/2000/svg">
<g id="Group 6">
<path id="Vector" d="M45.838 23.033C45.8108 28.7326 43.7026 33.9393 40.2344 37.9363C40.1986 37.9779 40.1627 38.018 40.1269 38.0582C38.7138 39.6619 36.1671 39.5114 34.9403 37.7615L33.361 35.5086C33.1947 35.2707 33.232 34.9453 33.4498 34.7519C34.2252 34.0625 34.9317 33.2972 35.558 32.4688C35.7744 32.1822 36.2087 32.1951 36.415 32.4889H36.4165L36.8149 33.0593C36.8149 33.0593 36.8149 33.0607 36.8149 33.0622C37.3924 33.8862 38.6207 33.8432 39.1509 32.9877C39.2082 32.8959 39.2641 32.8028 39.32 32.7096C41.0441 29.8318 42.0287 26.4596 42.0172 22.8581C41.9843 12.4348 33.49 3.89891 23.0666 3.82008C12.4512 3.73983 3.82222 12.3216 3.82222 22.9197C3.82222 26.4697 4.7896 29.7946 6.48073 32.6423C6.49362 32.6652 6.50652 32.6881 6.51942 32.7096C6.57675 32.8056 6.63407 32.9002 6.69283 32.9948C7.22167 33.8461 8.44271 33.8877 9.01741 33.0665H9.01884H9.02028L9.42156 32.4932C9.62937 32.198 10.0665 32.1851 10.2843 32.4731C10.9106 33.3001 11.6172 34.064 12.3911 34.7519C12.6089 34.9453 12.6462 35.2692 12.4799 35.5086L10.9006 37.7615C9.67236 39.5128 7.12421 39.6619 5.71112 38.0567C5.67673 38.0166 5.6409 37.9765 5.6065 37.9363C2.11247 33.912 0 28.6624 0 22.9197C0 10.2019 10.3588 -0.0967275 23.0982 0.000727055C35.6784 0.0967484 45.8982 10.4527 45.838 23.033Z" fill="var(--fill-0, #16A34A)"/>
<path id="Vector_2" d="M33.0813 27.738C33.3608 28.1364 33.3866 28.6652 33.1344 29.0837C33.1329 29.0866 33.1315 29.0894 33.1301 29.0909C32.7732 29.6799 32.3676 30.2345 31.9176 30.7505C31.3845 31.3624 30.4214 31.318 29.9556 30.6545L28.2373 28.2038C28.2373 28.2038 28.2358 28.2038 28.2344 28.2009C28.1226 28.0217 28.0008 27.8483 27.8718 27.6821C27.8647 27.6721 27.8575 27.662 27.8489 27.652C27.6325 27.3768 27.3946 27.1203 27.1352 26.8853C26.0818 25.925 24.6974 25.3202 23.1754 25.2601C23.0908 25.2558 23.0048 25.2543 22.9188 25.2543C22.7999 25.2543 22.6824 25.2572 22.5663 25.2644C21.0314 25.3489 19.6441 25.9867 18.5993 26.9813C18.3714 27.1977 18.1608 27.4313 17.9673 27.6792C17.9659 27.6821 17.963 27.685 17.9616 27.6878C17.8426 27.8397 17.7322 27.9988 17.6276 28.1622C17.6233 28.1679 17.619 28.1751 17.6147 28.1808L15.8806 30.6545C15.4148 31.3194 14.4518 31.3624 13.9186 30.7519C13.4686 30.236 13.063 29.6799 12.7076 29.0909C12.7076 29.088 12.7047 29.0866 12.7033 29.0837C12.4496 28.6667 12.4754 28.1364 12.7563 27.7365L14.2124 25.6599L14.2153 25.6556L14.4045 25.3862L14.4188 25.3647C14.9204 24.6739 15.5037 24.0462 16.1558 23.4973C17.2392 22.5829 18.5105 21.885 19.9035 21.4679C20.7705 21.2085 21.6849 21.0566 22.6308 21.0322C22.7268 21.0294 22.8228 21.028 22.9188 21.028C23.0149 21.028 23.1109 21.028 23.2055 21.0308C24.1227 21.0566 25.0098 21.1985 25.8525 21.4436C27.2326 21.8448 28.4952 22.5213 29.5758 23.4084C30.2652 23.9759 30.8814 24.628 31.406 25.3489L31.4232 25.3733L31.621 25.6556L31.631 25.6714L31.6367 25.68L31.651 25.7015L33.0813 27.7394V27.738Z" fill="var(--fill-0, #16A34A)"/>
<path id="Vector_3" d="M22.9188 39.1731C24.6467 39.1731 26.0474 37.7724 26.0474 36.0445C26.0474 34.3167 24.6467 32.9159 22.9188 32.9159C21.191 32.9159 19.7903 34.3167 19.7903 36.0445C19.7903 37.7724 21.191 39.1731 22.9188 39.1731Z" fill="var(--fill-0, #16A34A)"/>
<path id="Vector_4" d="M24.8593 1.50263V16.9692C24.3219 16.8689 23.7687 16.8087 23.2054 16.793C23.1108 16.7915 23.0148 16.7901 22.9188 16.7901C22.8228 16.7901 22.7267 16.7901 22.6307 16.793C22.0675 16.8087 21.5157 16.8689 20.9783 16.9707V1.50263H24.8593Z" fill="var(--fill-0, #16A34A)"/>
</g>
</svg>
