<svg preserveAspectRatio="none" width="100%" height="100%" overflow="visible" style="display: block;" viewBox="0 0 40.8749 34.9316" fill="none" xmlns="http://www.w3.org/2000/svg">
<g id="Group 6">
<path id="Vector" d="M40.8747 20.5389C40.8504 25.6214 38.9705 30.2643 35.8778 33.8285C35.8458 33.8656 35.8139 33.9014 35.7819 33.9372C34.5219 35.3672 32.2509 35.233 31.157 33.6726L29.7486 31.6637C29.6004 31.4515 29.6336 31.1614 29.8279 30.9889C30.5193 30.3742 31.1493 29.6917 31.7078 28.9531C31.9007 28.6975 32.288 28.709 32.472 28.971H32.4733L32.8286 29.4796C32.8286 29.4796 32.8286 29.4809 32.8286 29.4822C33.3436 30.217 34.4388 30.1787 34.9117 29.4157C34.9628 29.3339 35.0126 29.2508 35.0625 29.1678C36.5999 26.6016 37.4778 23.5945 37.4676 20.383C37.4382 11.0883 29.8637 3.4767 20.569 3.40641C11.103 3.33484 3.40835 10.9873 3.40835 20.4379C3.40835 23.6035 4.27098 26.5684 5.77899 29.1077C5.79049 29.1282 5.802 29.1486 5.8135 29.1678C5.86462 29.2534 5.91573 29.3377 5.96813 29.4221C6.4397 30.1812 7.52854 30.2183 8.041 29.486H8.04228H8.04356L8.40139 28.9748C8.5867 28.7115 8.97648 28.7 9.17073 28.9569C9.7292 29.6943 10.3592 30.3755 11.0493 30.9889C11.2436 31.1614 11.2768 31.4502 11.1286 31.6637L9.72026 33.6726C8.62504 35.2343 6.3528 35.3672 5.09272 33.9359C5.06205 33.9001 5.0301 33.8643 4.99943 33.8285C1.88373 30.24 0 25.5588 0 20.4379C0 9.09722 9.23718 -0.0862904 20.5971 0.000611709C31.8151 0.0862359 40.9283 9.32087 40.8747 20.5389Z" fill="var(--fill-0, #92FC05)"/>
<path id="Vector_2" d="M29.4994 24.7344C29.7486 25.0896 29.7716 25.5612 29.5467 25.9344C29.5454 25.9369 29.5441 25.9395 29.5428 25.9408C29.2246 26.466 28.8629 26.9606 28.4617 27.4207C27.9863 27.9664 27.1275 27.9267 26.7121 27.335L25.1798 25.1497C25.1798 25.1497 25.1786 25.1497 25.1773 25.1472C25.0776 24.9874 24.969 24.8328 24.8539 24.6845C24.8476 24.6756 24.8412 24.6666 24.8335 24.6577C24.6405 24.4123 24.4284 24.1836 24.1971 23.974C23.2578 23.1177 22.0232 22.5784 20.666 22.5248C20.5906 22.5209 20.514 22.5196 20.4373 22.5196C20.3312 22.5196 20.2264 22.5222 20.1229 22.5286C18.7542 22.604 17.5171 23.1727 16.5855 24.0596C16.3823 24.2526 16.1944 24.4609 16.0219 24.682C16.0206 24.6845 16.018 24.6871 16.0168 24.6896C15.9107 24.8251 15.8123 24.967 15.719 25.1127C15.7152 25.1178 15.7113 25.1242 15.7075 25.1293L14.1612 27.335C13.7458 27.928 12.887 27.9664 12.4116 27.4219C12.0103 26.9619 11.6487 26.466 11.3317 25.9408C11.3317 25.9382 11.3292 25.9369 11.3279 25.9344C11.1017 25.5625 11.1247 25.0896 11.3752 24.7331L12.6736 22.8813L12.6762 22.8775L12.8448 22.6372L12.8576 22.618C13.3049 22.0021 13.825 21.4423 14.4065 20.9529C15.3727 20.1375 16.5062 19.5151 17.7484 19.1432C18.5216 18.9119 19.3369 18.7765 20.1804 18.7547C20.266 18.7522 20.3517 18.7509 20.4373 18.7509C20.5229 18.7509 20.6085 18.7509 20.6929 18.7535C21.5108 18.7765 22.3018 18.903 23.0533 19.1215C24.284 19.4793 25.4099 20.0826 26.3735 20.8736C26.9882 21.3797 27.5377 21.9612 28.0054 22.604L28.0208 22.6257L28.1971 22.8775L28.2061 22.8915L28.2112 22.8992L28.224 22.9184L29.4994 24.7357V24.7344Z" fill="var(--fill-0, #92FC05)"/>
<path id="Vector_3" d="M20.4373 34.9315C21.978 34.9315 23.2271 33.6825 23.2271 32.1417C23.2271 30.6009 21.978 29.3519 20.4373 29.3519C18.8965 29.3519 17.6475 30.6009 17.6475 32.1417C17.6475 33.6825 18.8965 34.9315 20.4373 34.9315Z" fill="var(--fill-0, #92FC05)"/>
<path id="Vector_4" d="M22.1676 1.33974V15.1316C21.6884 15.0422 21.1951 14.9885 20.6928 14.9744C20.6085 14.9731 20.5229 14.9719 20.4372 14.9719C20.3516 14.9719 20.266 14.9719 20.1804 14.9744C19.6781 14.9885 19.1861 15.0422 18.7069 15.1329V1.33974H22.1676Z" fill="var(--fill-0, #92FC05)"/>
</g>
</svg>
